<svg xmlns="http://www.w3.org/2000/svg" height="24" viewBox="0 -960 960 960" width="24"><path d="M365.077-160h229.846q8.462 0 15-5 6.539-5 8.846-13.461l43.846-173.846h-365.23l43.846 173.846Q343.538-170 350.077-165q6.538 5 15 5Zm0 40q-21.846 0-39.385-13.538-17.538-13.539-23-35.154l-46.538-183.615h447.692l-46.538 183.615q-5.462 21.615-23 35.154Q616.769-120 594.923-120H365.077ZM240-392.308h481.539q10.769 0 17.692-6.923t6.923-17.692V-480H215.385v63.077q0 10.769 6.923 17.692T240-392.308Zm240-220.769q7.692-78.462 63.077-133.846 55.385-55.385 133.846-62.308-6.923 72.308-56.615 126.385T500-614.769V-520h286.154v103.077q0 26.846-18.884 45.731-18.885 18.885-45.731 18.885H240q-26.846 0-45.731-18.885t-18.885-45.731V-520H460v-94.769q-70.616-14-119.923-67.693-49.308-53.692-57-126.769 78.461 6.923 133.846 62.308Q472.308-691.539 480-613.077Z"/></svg>